<?xml version="1.0" encoding="utf-8"?>
<!-- Svg Vector Icons : http://www.onlinewebfonts.com/icon -->
<!DOCTYPE svg PUBLIC "-//W3C//DTD SVG 1.1//EN" "http://www.w3.org/Graphics/SVG/1.1/DTD/svg11.dtd">
<svg version="1.1" xmlns="http://www.w3.org/2000/svg" xmlns:xlink="http://www.w3.org/1999/xlink" x="0px" y="0px" viewBox="0 0 1000 1000" enable-background="new 0 0 1000 1000" xml:space="preserve">
<metadata> Svg Vector Icons : http://www.onlinewebfonts.com/icon </metadata>
<g><path d="M762.2,789.6c92.8-51.9,154.2-141.6,154.2-243.7c0-64.6-24.8-124-66.3-172.3c2.8-18.8,4.7-37.9,4.7-57.4c0-8.9-1-17.6-1.6-26.4C929.9,353.3,978,442.8,978,542.1c0,111.5-60.5,210.4-154.2,274.2V990L651,884.3c-24,3.9-48.6,6.2-73.9,6.2c-118.8,0-194.3-45.1-267.7-116.4c12.1,0.7,24.1,1.6,36.4,1.6c17.2,0,34.2-0.9,51-2.2c58,39.6,100.4,63.4,180.3,63.4c27.5,0,54.2-3.1,79.8-8.4l105.3,69.7V789.6L762.2,789.6z M422.9,714.4c-25.3,0-79.8-4.2-103.7-8.1l-173.8,99.9V632.6C64.7,564.4,22,469.8,22,358.4C22,166,201.2,10,422.9,10C607.2,10,793,166,793,358.4C793,550.8,644.3,714.4,422.9,714.4L422.9,714.4z M312.3,644.7c25.6,5.3,83.1,8.4,110.6,8.4c187.4,0,308.4-130.3,308.4-290.9c0-160.7-155.1-290.9-308.4-290.9c-192.7,0-339.3,130.3-339.3,290.9c0,102.1,48.1,183,123.4,243.7v108.5L312.3,644.7L312.3,644.7z M592.5,408.1c-25.6,0-46.3-20.6-46.3-45.9c0-25.4,20.7-45.9,46.3-45.9c25.6,0,46.3,20.6,46.3,45.9C638.8,387.6,618.1,408.1,592.5,408.1L592.5,408.1z M407.5,408.1c-25.6,0-46.3-20.6-46.3-45.9c0-25.4,20.7-45.9,46.3-45.9c25.6,0,46.3,20.6,46.3,45.9C453.7,387.6,433,408.1,407.5,408.1L407.5,408.1z M222.4,408.1c-25.6,0-46.3-20.6-46.3-45.9c0-25.4,20.7-45.9,46.3-45.9s46.3,20.6,46.3,45.9C268.7,387.6,248,408.1,222.4,408.1L222.4,408.1z"/></g>
</svg>